<svg xmlns="http://www.w3.org/2000/svg" width="800" height="800" viewBox="0 0 600 600"><path d="M46 9C29 13 13 29 9 47c-2 7-3 496-1 505 3 14 16 30 30 37l7 4h253c250 0 253 0 259-2 14-4 30-20 34-34 2-6 2-10 2-259l-1-253-3-7c-7-14-24-27-37-30-9-2-499-1-506 1m492 30q16 1 22 7c2 2 2 3 2 15v13l-10-10c-18-19-20-19-58-1-38 19-52 24-108 41a570 570 0 0 0-225 113c-40 34-82 91-93 123-5 18-6 46-1 56 5 9 4 12-5 27l-11 20c-11 20-14 23-16 20l-1-206V52l4-4q8-8 23-9zm-1 39c3 3 10 51 10 67s-5 43-12 63q-7 23-31 33a398 398 0 0 1-113 13c-2 2-1 8 1 9 8 5 98 9 110 6q6-4-7 12-50 66-80 76a252 252 0 0 1-126-8l-4 2c-10 8 27 27 66 34l16 3c-1 3-54 25-62 26-22 3-79 2-90-2q-6 1-7 5c0 3 13 13 25 19l4 3-49 10c-25 5-38 6-67 6l-25 1-9 11c-11 13-26 36-31 46q-7 12-11 9-5-1 3-19a778 778 0 0 1 120-178q20-21 42-37l18-13c19-14 46-30 69-42 16-8 18-9 13-13a467 467 0 0 0-166 111c-18 19-23 25-38 49l-12 19c-2 0-4-10-5-18-1-17 5-40 15-56q66-109 206-165c32-13 37-14 80-27 64-20 73-23 116-45 26-12 28-13 31-10m23 476c-2 5-10 10-16 11l-246 1H57l-6-3q-16-9-17-20-1-5 6 1 16 15 43-28c19-28 20-29 48-29 24-1 42-3 64-7 30-6 35-9 51-23 11-9 8-9 33-10 32-2 43-4 70-18q21-11 35-31l4-6 10-1c27-3 43-12 68-36 36-34 58-67 58-86q-1-6 3-8 17-14 29-35l6-9v167c0 159 0 168-2 170"/></svg>