<?xml version="1.0" standalone="no"?>
<!DOCTYPE svg PUBLIC "-//W3C//DTD SVG 20010904//EN"
 "http://www.w3.org/TR/2001/REC-SVG-20010904/DTD/svg10.dtd">
<svg version="1.0" xmlns="http://www.w3.org/2000/svg"
 width="600.000000pt" height="600.000000pt" viewBox="0 0 600.000000 600.000000"
 preserveAspectRatio="xMidYMid meet">
<g transform="translate(0.000000,600.000000) scale(0.100000,-0.100000)"
fill="#000000" stroke="none">
<path d="M1375 5691 c-142 -8 -241 -74 -298 -199 l-22 -47 -3 -1688 -3 -1688
25 -54 c30 -66 94 -137 163 -182 l52 -33 1704 0 1704 0 61 31 c70 35 133 100
168 174 l24 50 0 1700 0 1700 -29 51 c-37 63 -120 139 -186 170 l-50 24 -1605
-2 c-883 -1 -1650 -4 -1705 -7z m3298 -215 c69 -25 77 -39 77 -133 0 -45 -2
-83 -5 -83 -2 0 -37 33 -78 74 -113 115 -121 115 -437 -34 -236 -112 -416
-175 -805 -285 -846 -238 -1613 -807 -1926 -1428 -74 -145 -97 -375 -50 -482
28 -63 28 -63 -80 -257 -94 -169 -116 -201 -130 -192 -5 3 -9 615 -9 1378 l0
1372 28 27 c61 59 -39 56 1742 56 1354 0 1642 -2 1673 -13z m-84 -268 c35
-109 64 -403 51 -519 -30 -269 -104 -441 -221 -515 -86 -54 -363 -103 -631
-111 l-188 -6 0 -29 c0 -21 6 -31 23 -37 50 -19 264 -34 494 -35 134 -1 243
-2 243 -3 0 -6 -207 -260 -264 -323 -218 -243 -312 -284 -641 -285 -188 0
-249 7 -426 52 -112 27 -139 26 -139 -6 0 -65 219 -164 453 -206 53 -10 97
-21 97 -25 0 -9 -129 -69 -275 -127 l-120 -47 -240 0 c-132 -1 -277 3 -322 8
-74 7 -84 6 -90 -9 -10 -28 8 -46 100 -104 48 -30 85 -56 83 -58 -2 -2 -108
-24 -237 -49 -214 -42 -253 -46 -463 -55 -150 -6 -234 -13 -243 -21 -29 -24
-171 -221 -223 -308 -67 -114 -96 -143 -115 -117 -57 78 380 789 753 1225 201
236 494 458 877 665 164 89 170 94 155 112 -9 11 -26 7 -93 -21 -525 -225
-1016 -620 -1271 -1024 -49 -77 -93 -137 -98 -132 -15 15 -30 127 -24 184 16
137 58 242 154 385 367 545 920 915 1742 1163 471 142 592 187 890 334 176 87
194 90 209 44z m159 -2093 c-3 -1168 3 -1074 -78 -1115 -39 -20 -55 -20 -1673
-20 l-1633 0 -45 28 c-53 35 -74 57 -89 96 -15 42 1 50 40 21 77 -57 158 -4
280 180 112 168 146 195 248 195 162 0 449 34 596 71 102 26 142 47 237 124
86 71 61 64 314 84 154 12 207 26 342 92 111 54 225 150 273 228 21 35 30 41
60 41 134 2 292 71 425 188 248 217 426 461 444 608 7 56 10 62 70 119 34 32
81 89 105 125 23 36 51 79 62 95 l19 30 3 -75 c2 -41 2 -543 0 -1115z"/>
<path d="M597 1589 c-86 -21 -153 -83 -184 -173 -26 -73 -25 -261 1 -336 49
-141 202 -216 325 -160 38 18 47 19 65 7 12 -8 31 -16 44 -19 l22 -6 0 184 0
184 -104 0 -104 0 -11 -31 c-6 -18 -11 -34 -11 -35 0 -2 23 -4 50 -4 l50 0 0
-100 c0 -114 -7 -124 -89 -122 -96 1 -119 51 -120 265 -2 226 28 284 138 275
47 -4 59 -10 88 -42 39 -42 63 -43 77 -3 25 69 -126 144 -237 116z"/>
<path d="M2890 1590 c-59 -14 -90 -59 -90 -130 l0 -60 -40 0 c-39 0 -40 -1
-40 -35 0 -34 1 -35 40 -35 l40 0 0 -210 0 -210 60 0 60 0 0 210 0 210 60 0
60 0 0 35 0 35 -60 0 -60 0 0 59 c0 68 12 79 67 60 37 -12 47 -7 57 27 10 34
-83 60 -154 44z"/>
<path d="M4360 1250 l0 -340 67 0 66 0 -6 179 -7 179 31 26 c32 28 77 34 97
14 9 -9 12 -68 12 -205 l0 -193 61 0 60 0 -3 215 -3 215 -33 32 c-47 48 -122
48 -181 0 l-41 -33 6 125 7 126 -66 0 -67 0 0 -340z"/>
<path d="M4116 1492 c-18 -34 -84 -100 -108 -108 -36 -11 -23 -54 17 -54 l35
0 0 -171 c0 -191 7 -216 66 -244 61 -29 174 -8 174 32 0 37 -15 46 -53 33 -66
-24 -67 -21 -67 175 l0 175 61 0 60 0 -3 33 c-3 32 -4 32 -60 35 l-58 3 0 59
c0 57 -1 60 -25 60 -17 0 -29 -9 -39 -28z"/>
<path d="M1175 1394 c-16 -8 -38 -25 -47 -37 l-18 -22 0 33 0 32 -60 0 -60 0
0 -245 0 -246 61 3 61 3 -1 168 -2 168 31 31 c29 28 35 30 81 25 l49 -6 0 54
0 55 -32 0 c-18 0 -46 -7 -63 -16z"/>
<path d="M1442 1399 c-155 -45 -192 -329 -58 -447 68 -59 186 -67 270 -18 63
37 73 52 51 76 -23 26 -30 25 -70 -6 -97 -73 -205 -26 -205 91 l0 45 151 0
150 0 -7 58 c-20 165 -131 244 -282 201z m127 -78 c22 -22 45 -96 36 -111 -3
-6 -44 -10 -91 -10 l-84 0 0 39 c0 82 88 133 139 82z"/>
<path d="M1904 1391 c-159 -72 -170 -374 -17 -459 86 -47 199 -38 269 22 34
29 36 33 23 54 -18 28 -34 28 -70 -3 -88 -73 -196 -29 -207 84 l-5 51 152 0
151 0 0 44 c0 164 -154 272 -296 207z m141 -74 c20 -17 28 -35 32 -70 l6 -47
-92 0 c-101 0 -101 -1 -81 72 19 67 85 89 135 45z"/>
<path d="M2475 1397 c-17 -8 -36 -21 -44 -30 -19 -24 -29 -21 -23 8 4 25 3 25
-62 25 l-66 0 0 -245 0 -246 63 3 62 3 0 178 0 179 28 24 c30 26 75 32 95 12
9 -9 12 -68 12 -205 l0 -193 61 0 60 0 -3 215 -3 215 -31 31 c-37 37 -101 48
-149 26z"/>
<path d="M3194 1391 c-89 -40 -130 -128 -122 -261 8 -130 73 -209 187 -226
101 -15 241 54 210 104 -18 28 -34 28 -70 -3 -88 -73 -196 -29 -207 84 l-5 51
152 0 151 0 0 43 c0 166 -153 273 -296 208z m128 -62 c23 -12 48 -66 48 -104
0 -25 0 -25 -90 -25 -100 0 -100 0 -80 72 17 59 71 84 122 57z"/>
<path d="M3675 1396 c-43 -13 -105 -44 -105 -51 0 -12 24 -55 31 -55 4 0 29
11 55 25 89 48 141 29 151 -55 l6 -52 -26 16 c-67 45 -186 11 -224 -64 -74
-145 53 -304 198 -247 22 9 41 11 45 6 3 -5 32 -9 65 -9 l59 0 0 188 c0 164
-3 192 -20 230 -32 72 -132 101 -235 68z m105 -231 c67 -35 26 -195 -50 -195
-64 0 -98 133 -47 184 30 30 55 32 97 11z"/>
<path d="M4967 1400 c-155 -47 -197 -326 -67 -444 70 -63 188 -73 274 -22 63
37 73 52 51 76 -23 26 -30 25 -70 -6 -97 -73 -205 -26 -205 91 l0 45 150 0
150 0 0 33 c0 162 -136 271 -283 227z m122 -79 c22 -22 45 -96 36 -111 -3 -6
-44 -10 -91 -10 l-84 0 0 41 c0 78 90 129 139 80z"/>
<path d="M5503 1391 c-17 -11 -36 -28 -42 -38 -9 -15 -10 -13 -11 15 l0 32
-60 0 -60 0 0 -245 0 -245 60 0 60 0 0 174 0 174 32 27 c28 24 37 26 81 21
l48 -7 -3 53 c-3 53 -3 53 -38 56 -21 1 -47 -5 -67 -17z"/>
<path d="M1915 750 c-45 -14 -86 -61 -92 -106 -7 -55 26 -98 112 -146 81 -45
95 -60 95 -103 0 -76 -110 -96 -177 -33 -24 23 -25 23 -39 3 -29 -40 78 -94
159 -81 86 14 130 62 129 139 -1 64 -30 98 -124 147 -71 37 -96 70 -80 106 21
44 84 52 140 17 42 -26 61 14 19 42 -30 19 -103 27 -142 15z"/>
<path d="M3579 737 c-129 -68 -138 -350 -14 -427 111 -69 231 0 255 146 35
206 -95 358 -241 281z m106 -27 c41 -16 55 -64 55 -192 0 -160 -28 -207 -114
-191 -51 10 -61 42 -61 193 0 148 11 184 57 193 13 2 26 5 30 6 4 0 18 -3 33
-9z"/>
<path d="M3960 738 c-117 -60 -91 -169 60 -253 92 -51 107 -121 34 -151 -44
-18 -87 -11 -130 22 -29 21 -33 22 -45 8 -31 -38 85 -92 169 -79 67 10 113 57
119 121 7 68 -21 107 -116 159 -80 46 -91 57 -91 96 0 52 85 72 144 34 23 -16
29 -16 37 -4 14 22 11 27 -21 44 -54 28 -110 29 -160 3z"/>
<path d="M2146 734 c-3 -9 -6 -18 -6 -20 0 -2 27 -4 60 -4 l60 0 0 -210 0
-210 40 0 40 0 0 210 0 210 64 0 c59 0 64 2 59 20 -7 27 -306 31 -317 4z"/>
<path d="M2530 563 c0 -167 2 -191 19 -219 38 -63 158 -82 220 -36 42 31 50
72 50 265 l1 177 -25 0 -25 0 0 -193 c0 -222 -3 -232 -82 -232 -73 0 -78 16
-78 236 l0 189 -40 0 -40 0 0 -187z"/>
<path d="M2920 520 l0 -230 89 0 c172 0 230 58 231 228 0 172 -58 232 -225
232 l-95 0 0 -230z m207 166 l28 -24 0 -142 0 -142 -28 -24 c-22 -18 -40 -24
-78 -24 l-49 0 0 190 0 190 49 0 c38 0 56 -6 78 -24z"/>
<path d="M3320 520 l0 -230 40 0 40 0 0 230 0 230 -40 0 -40 0 0 -230z"/>
</g>
</svg>
