<?xml version="1.0" standalone="no"?>
<!DOCTYPE svg PUBLIC "-//W3C//DTD SVG 20010904//EN"
 "http://www.w3.org/TR/2001/REC-SVG-20010904/DTD/svg10.dtd">
<svg version="1.0" xmlns="http://www.w3.org/2000/svg"
 width="1800.000000pt" height="450.000000pt" viewBox="0 0 1800.000000 450.000000"
 preserveAspectRatio="xMidYMid meet">
<g transform="translate(0.000000,450.000000) scale(0.100000,-0.100000)"
fill="#000000" stroke="none">
<path d="M1040 4041 l-395 -6 -46 -27 c-57 -34 -112 -94 -141 -155 l-23 -48 0
-1575 0 -1575 37 -55 c55 -82 105 -128 177 -160 l24 -11 1581 3 1581 3 57 38
c54 37 88 73 133 142 l20 30 -3 1595 -2 1595 -34 51 c-35 52 -91 102 -156 139
l-35 20 -1190 1 c-655 0 -1368 -2 -1585 -5z m2731 -197 c30 -9 62 -23 72 -32
l17 -15 0 -73 c0 -94 -5 -95 -76 -23 l-59 60 -35 9 -35 9 -40 -8 c-41 -9 -86
-27 -215 -88 -163 -77 -242 -109 -340 -139 -30 -9 -63 -21 -72 -25 -10 -5 -34
-13 -55 -18 -21 -5 -51 -14 -68 -19 -16 -6 -57 -18 -90 -27 -33 -9 -80 -23
-105 -31 -25 -8 -52 -14 -61 -14 -9 0 -30 -7 -45 -15 -16 -8 -36 -15 -45 -15
-9 0 -30 -7 -45 -15 -16 -8 -37 -15 -46 -15 -9 0 -29 -6 -45 -14 -15 -8 -48
-22 -73 -31 -104 -40 -427 -199 -511 -253 -15 -9 -55 -35 -90 -57 -35 -21 -68
-43 -74 -47 -5 -5 -68 -51 -138 -104 -218 -162 -410 -368 -557 -599 -69 -108
-68 -105 -125 -230 -8 -16 -19 -78 -26 -136 l-12 -105 12 -65 c7 -35 19 -76
27 -91 l14 -26 -21 -44 c-11 -23 -35 -70 -53 -103 -18 -33 -50 -91 -71 -130
-44 -83 -35 -71 -62 -79 l-23 -7 0 1268 0 1269 28 27 c16 15 44 33 63 40 l34
12 1360 5 c748 3 1421 6 1496 8 l135 2 55 -16z m-61 -248 c12 -33 26 -117 46
-274 l16 -132 -17 -103 c-18 -116 -40 -207 -61 -255 -8 -18 -14 -39 -14 -47 0
-22 -57 -100 -92 -126 -65 -48 -88 -55 -313 -100 -33 -6 -148 -13 -255 -16
-107 -2 -205 -6 -217 -9 l-23 -4 0 -23 c0 -12 7 -31 16 -42 l15 -20 82 -8 c45
-4 194 -10 331 -12 137 -2 251 -7 254 -10 30 -30 -429 -505 -487 -505 -5 0
-22 -7 -37 -15 -16 -8 -42 -15 -59 -15 -16 0 -76 -5 -132 -12 l-101 -11 -119
12 c-65 7 -136 17 -158 22 -22 6 -61 15 -87 20 -26 5 -60 16 -75 24 -52 28
-93 14 -93 -31 l0 -23 35 -28 c19 -15 56 -36 82 -47 26 -10 62 -24 78 -31 40
-17 108 -35 175 -45 73 -12 133 -32 129 -45 -1 -5 -39 -25 -83 -43 -45 -19
-92 -39 -106 -45 -54 -23 -98 -38 -158 -52 l-63 -15 -167 0 -167 0 -86 13 -86
13 -22 -7 -21 -8 0 -19 c0 -22 31 -52 80 -79 60 -32 80 -47 80 -60 l0 -13 -27
0 c-26 0 -111 -16 -223 -41 -97 -23 -253 -40 -415 -45 l-170 -6 -33 -32 c-18
-17 -49 -56 -70 -86 -20 -30 -39 -57 -42 -60 -15 -15 -50 -71 -50 -80 0 -5 -4
-10 -8 -10 -4 0 -20 -24 -35 -53 -14 -29 -38 -64 -51 -76 l-25 -24 -15 6 -16
6 0 31 c0 17 4 38 10 48 5 9 21 42 35 72 14 30 41 82 60 115 19 33 39 69 44
80 5 11 20 36 33 55 13 19 27 42 31 50 32 64 179 277 329 475 126 165 335 386
454 476 132 102 330 235 384 259 13 6 27 14 30 18 6 8 29 20 173 95 l97 51 0
17 c0 10 -9 23 -19 29 l-19 10 -49 -24 c-26 -13 -97 -47 -158 -76 -60 -30
-112 -56 -115 -59 -3 -3 -25 -17 -50 -30 -300 -159 -747 -564 -853 -771 -4 -8
-16 -28 -27 -45 -11 -16 -24 -39 -29 -50 -5 -11 -18 -28 -30 -39 l-21 -19 -7
19 c-5 11 -8 66 -7 124 l0 105 18 50 c62 168 178 335 374 538 96 99 264 247
281 247 3 0 18 10 31 23 37 32 88 67 99 67 5 0 11 4 13 8 2 5 44 32 93 61 50
29 97 56 105 61 19 12 91 47 110 54 8 3 22 10 30 15 24 15 149 71 159 71 5 0
22 6 38 14 60 30 161 69 238 91 33 10 68 21 77 26 10 5 34 13 55 18 98 25 130
35 160 47 17 8 38 14 47 14 8 0 30 6 48 14 18 8 60 22 93 32 33 9 74 23 92 31
17 7 36 13 42 13 6 0 25 6 43 14 119 52 162 72 230 106 42 22 85 43 95 49 10
5 25 12 33 16 8 3 35 17 60 30 25 13 55 24 68 24 l22 1 10 -24z m148 -1887
l-5 -1018 -17 -26 c-10 -15 -33 -33 -51 -41 l-33 -14 -1489 -8 -1488 -8 -48
15 -47 14 -40 43 c-22 24 -40 53 -40 64 0 25 3 25 57 -2 l44 -22 35 19 c32 17
61 46 119 116 11 13 46 62 78 109 31 47 69 93 83 104 l26 19 232 18 c391 32
493 58 611 160 33 28 74 57 90 64 l30 13 140 7 140 7 55 15 c62 18 86 27 184
75 l69 33 72 67 c39 37 82 83 96 102 l24 36 27 0 c97 0 249 59 346 134 155
118 432 443 432 505 0 5 7 22 15 37 8 16 15 48 15 72 l0 43 71 72 c39 40 75
81 80 92 11 23 27 49 53 87 l18 28 11 -7 10 -6 -5 -1018z"/>
<path d="M5550 3843 c-131 -26 -196 -59 -303 -153 -237 -209 -300 -777 -128
-1160 29 -65 104 -163 158 -206 26 -22 50 -41 53 -44 3 -3 34 -19 70 -36 l65
-31 90 -16 c50 -9 99 -15 110 -12 11 2 49 9 85 15 70 13 117 32 166 68 42 30
46 29 105 -24 l51 -45 46 3 47 3 0 430 0 430 -235 5 c-129 3 -242 2 -251 -2
-15 -7 -37 -61 -53 -130 l-6 -27 12 -8 c7 -4 63 -8 123 -8 l110 0 3 -231 2
-232 -32 -19 c-18 -10 -59 -27 -92 -37 l-58 -19 -57 7 c-152 16 -211 70 -252
225 l-19 74 0 351 0 351 11 40 c6 22 13 54 16 70 14 76 85 152 170 182 l48 17
60 -1 60 -1 60 -22 60 -23 48 -50 c27 -28 53 -61 58 -74 22 -58 73 -48 123 24
47 68 46 78 -14 145 -85 96 -172 142 -322 172 -88 18 -87 18 -188 -1z"/>
<path d="M11060 3851 c-8 -5 -40 -12 -70 -16 l-54 -7 -37 -24 c-54 -34 -96
-91 -120 -162 l-21 -64 7 -93 7 -93 -13 -8 c-7 -4 -47 -8 -88 -8 l-76 -1 -3
-68 -3 -69 13 -15 13 -16 67 6 68 6 7 -12 c5 -7 8 -232 8 -502 l0 -490 145 0
145 0 0 492 0 492 10 10 10 10 118 -7 c65 -4 124 -4 130 0 l12 7 0 78 0 78
-131 1 c-71 0 -136 4 -143 9 l-14 8 5 123 5 124 18 20 18 20 49 0 48 0 37 -20
c21 -11 52 -20 69 -20 l31 0 20 59 21 60 -14 19 c-28 40 -253 96 -294 73z"/>
<path d="M14503 3033 l-2 -797 11 -13 10 -13 127 0 127 0 11 11 10 10 -5 423
-5 422 48 42 c60 52 124 82 179 82 l41 0 28 -25 27 -26 1 -47 c0 -26 2 -236 2
-467 l2 -420 134 -3 133 -3 13 11 13 10 -4 458 -4 457 -12 45 c-62 236 -355
289 -536 96 -24 -25 -50 -46 -58 -46 l-15 0 6 123 c4 67 7 199 8 292 l2 170
-145 3 -145 3 -2 -798z"/>
<path d="M13926 3636 c-9 -14 -16 -29 -16 -34 0 -44 -129 -177 -239 -247 l-61
-39 0 -42 0 -42 14 -11 15 -12 58 3 c32 1 63 -1 70 -5 l11 -7 -5 -323 -6 -322
12 -88 12 -88 20 -38 c24 -47 51 -76 97 -104 l37 -23 87 -18 86 -18 34 10 c18
6 51 14 73 17 22 4 60 16 85 28 l45 22 3 26 c2 14 -6 47 -18 73 l-20 49 -35
-6 c-19 -3 -42 -13 -51 -21 l-15 -16 -63 0 -62 0 -17 29 -17 29 0 390 0 391
13 8 c6 4 68 8 137 8 l125 0 0 80 0 80 -138 3 -138 3 3 137 3 137 -61 3 -61 3
-17 -25z"/>
<path d="M6912 3377 c-70 -36 -128 -86 -143 -123 l-9 -25 -10 6 -10 6 0 70 0
70 -146 -3 -146 -3 1 -574 1 -575 12 -8 c7 -4 72 -8 144 -8 l132 0 6 16 c3 9
3 192 0 407 l-6 392 46 52 c25 28 65 61 89 72 l43 21 55 0 54 -1 19 -14 c26
-19 51 -19 70 1 l16 15 0 104 0 104 -22 15 -22 16 -56 0 -55 -1 -63 -32z"/>
<path d="M7585 3390 c-170 -42 -268 -136 -351 -335 -31 -75 -47 -331 -25 -405
6 -19 11 -45 11 -58 0 -13 18 -62 41 -108 l40 -86 63 -61 c59 -59 84 -76 166
-110 36 -16 54 -20 175 -37 l70 -10 75 16 c121 25 224 77 303 152 47 46 47 62
-4 117 -51 56 -64 56 -119 3 -43 -42 -69 -61 -100 -73 -8 -4 -30 -13 -48 -21
l-33 -14 -83 0 -84 0 -38 18 c-53 24 -94 52 -94 65 0 6 -6 18 -13 26 -20 24
-47 150 -47 220 l0 61 13 1 c6 0 167 1 357 2 l345 2 3 85 3 85 -16 70 c-16 66
-36 121 -56 155 -5 8 -13 24 -18 36 -12 26 -100 121 -128 137 -11 7 -35 20
-53 31 -90 50 -238 66 -355 36z m195 -160 c52 0 123 -109 140 -214 l11 -68
-14 -21 -14 -21 -194 -1 c-107 -1 -200 0 -206 3 l-13 4 0 42 c0 174 105 297
240 280 19 -2 42 -4 50 -4z"/>
<path d="M8720 3392 c-36 -10 -87 -29 -114 -44 -27 -16 -50 -28 -53 -28 -13 0
-105 -103 -129 -145 -51 -88 -64 -134 -85 -300 l-12 -90 12 -80 c6 -44 14 -98
18 -120 3 -22 12 -49 19 -60 8 -11 14 -25 14 -33 0 -54 149 -214 230 -247 67
-28 97 -36 182 -50 l97 -15 88 19 c98 22 158 42 175 59 7 7 16 12 20 12 11 0
27 13 95 77 l55 51 -9 15 c-16 29 -84 97 -97 97 -7 0 -41 -25 -76 -55 -36 -31
-75 -58 -89 -62 -14 -3 -36 -12 -50 -19 l-26 -14 -82 0 -83 0 -42 16 c-24 9
-59 33 -78 54 l-35 37 -18 59 -18 59 3 84 3 84 355 1 355 1 3 70 3 70 -16 75
c-30 136 -61 201 -133 281 l-54 59 -61 34 c-113 62 -244 79 -367 48z m172
-158 l37 -7 40 -34 c51 -43 76 -99 84 -187 l6 -68 -8 -17 -9 -16 -204 0 -203
0 -3 64 -3 65 22 58 22 59 44 39 45 39 31 4 c56 7 61 7 99 1z"/>
<path d="M10095 3405 c-5 -1 -30 -9 -55 -16 -55 -16 -146 -81 -169 -120 -9
-16 -21 -29 -28 -29 l-12 0 -3 68 -3 67 -144 0 -143 0 -3 -570 -2 -570 10 -12
9 -13 134 0 133 0 6 10 c3 6 6 201 5 434 l-1 424 47 41 c56 49 123 81 171 81
l35 0 28 -20 28 -20 13 -52 12 -53 -6 -410 c-4 -225 -3 -416 2 -423 l8 -13
134 3 134 3 0 480 0 481 -20 44 c-26 61 -71 117 -109 137 -77 42 -166 62 -211
48z"/>
<path d="M11800 3391 c-186 -50 -301 -167 -366 -371 l-17 -55 0 -160 -1 -160
18 -60 c9 -33 31 -89 48 -124 l31 -63 53 -53 c90 -92 156 -124 317 -151 l98
-16 42 10 c23 6 60 14 81 17 76 12 189 77 259 148 l49 49 -18 21 c-85 102 -88
103 -153 42 -26 -25 -53 -45 -60 -45 -6 0 -11 -4 -11 -10 0 -5 -12 -13 -27
-16 -15 -4 -38 -13 -52 -20 l-26 -14 -86 0 -86 0 -44 19 c-51 23 -82 52 -108
105 l-19 37 -7 87 c-4 48 -8 94 -11 102 -2 8 0 21 5 29 l9 13 344 -1 345 -2
13 16 13 16 -12 114 c-13 117 -35 198 -71 257 -11 18 -24 42 -29 53 -42 95
-225 192 -376 200 l-80 4 -65 -18z m237 -188 c56 -43 103 -151 103 -240 0 -56
7 -55 -223 -56 l-202 -2 1 86 2 86 22 44 c27 52 74 97 110 105 14 3 30 7 35 9
6 2 35 1 65 -2 l55 -6 32 -24z"/>
<path d="M12925 3390 c-96 -22 -131 -34 -199 -70 -134 -72 -129 -64 -91 -145
l26 -54 20 -6 20 -7 42 28 c55 37 79 52 97 59 8 4 30 13 48 21 l33 14 82 0 82
0 37 -30 36 -30 11 -51 c6 -27 11 -79 11 -114 l0 -65 -15 0 c-9 0 -32 11 -53
24 -20 13 -65 29 -99 35 l-63 12 -78 -11 c-244 -33 -369 -230 -318 -499 8 -40
19 -78 25 -84 6 -6 11 -19 11 -29 0 -39 162 -178 209 -178 9 0 41 -6 71 -14
l55 -15 74 15 c73 15 114 34 138 64 l12 15 23 -27 23 -26 128 -5 127 -5 6 10
c4 5 6 211 5 456 l-2 447 -16 45 c-9 25 -31 68 -49 95 l-33 50 -63 32 c-35 17
-85 38 -113 47 l-50 16 -65 -1 c-36 -1 -101 -9 -145 -19z m181 -561 c23 -11
48 -27 55 -36 l13 -15 -3 -157 -3 -156 -26 -29 c-15 -15 -44 -39 -64 -52 l-38
-24 -51 0 -52 0 -33 25 c-17 13 -42 45 -54 69 l-22 45 0 114 0 114 20 37 c35
65 69 83 161 85 l55 1 42 -21z"/>
<path d="M15983 3390 c-85 -21 -166 -65 -221 -120 -45 -45 -112 -152 -112
-179 0 -9 -5 -22 -12 -29 -13 -13 -25 -82 -34 -206 l-7 -80 13 -99 13 -100 23
-59 c80 -205 220 -302 479 -332 l51 -6 85 19 c100 21 167 53 250 116 93 72 96
87 38 150 -50 55 -64 56 -114 7 -53 -49 -90 -73 -150 -94 l-49 -18 -77 0 -76
0 -44 20 c-102 46 -149 142 -149 305 l0 65 13 1 c6 0 169 0 360 -1 l349 -1 -5
113 c-4 113 -17 179 -43 230 -8 14 -14 31 -14 36 0 15 -68 113 -100 145 -118
116 -295 161 -467 117z m227 -177 c34 -21 51 -41 78 -86 l22 -37 6 -80 7 -80
-11 -12 -10 -13 -204 0 -203 0 1 60 c0 33 8 87 18 119 l18 59 44 43 45 43 37
4 c56 6 124 -3 152 -20z"/>
<path d="M17262 3377 c-70 -36 -128 -86 -143 -123 l-9 -25 -10 6 -10 6 0 70 0
70 -147 -3 -148 -3 5 -130 c6 -157 6 -412 1 -758 l-4 -259 14 -9 14 -9 135 2
135 3 -4 405 -4 405 50 54 50 53 43 19 42 19 47 0 47 0 20 -15 c23 -18 66 -19
82 -3 l12 12 0 106 0 107 -18 16 -19 17 -59 0 -59 -1 -63 -32z"/>
<path d="M5435 1718 c-16 -6 -49 -17 -72 -25 -55 -19 -118 -75 -154 -138 l-29
-50 0 -76 0 -76 20 -44 c36 -80 104 -136 253 -210 124 -62 129 -65 163 -96 82
-73 84 -205 5 -268 -100 -79 -289 -50 -390 59 -30 32 -41 32 -69 3 l-22 -23 0
-30 0 -31 47 -34 c61 -43 76 -51 143 -73 l55 -19 99 1 98 0 11 11 c6 6 19 11
29 11 49 0 147 76 194 150 l28 45 1 100 0 100 -22 45 c-43 90 -114 147 -290
235 -51 25 -108 59 -128 76 l-35 31 -11 38 -12 38 7 45 7 44 23 22 c62 59 227
54 307 -9 20 -17 47 -30 60 -30 l24 0 17 31 18 30 -10 18 c-5 10 -22 27 -37
37 -94 63 -242 91 -328 62z"/>
<path d="M9445 1714 c-105 -38 -150 -69 -210 -149 -29 -37 -39 -59 -78 -160
-8 -22 -21 -86 -27 -142 l-12 -103 12 -102 c19 -165 59 -267 140 -352 46 -49
69 -64 153 -101 l37 -17 73 -1 72 0 48 16 c138 48 223 146 279 325 l21 67 -1
160 0 160 -20 66 c-77 257 -289 403 -487 333z m218 -128 c18 -14 44 -47 58
-73 l24 -48 3 -255 4 -255 -10 -71 -10 -71 -26 -42 -27 -42 -45 -20 -46 -19
-52 0 -53 0 -34 17 c-60 30 -84 61 -106 139 l-17 59 1 250 1 250 16 59 c8 32
21 66 28 75 49 65 92 82 190 76 l68 -4 33 -25z"/>
<path d="M10340 1711 c-184 -55 -271 -198 -223 -366 l18 -60 60 -60 60 -60 80
-41 c164 -83 185 -97 220 -135 61 -68 71 -130 33 -206 l-22 -43 -52 -25 -53
-25 -70 0 -70 0 -6 10 c-3 6 -16 10 -29 10 -13 0 -42 15 -65 33 -24 17 -57 42
-74 55 l-31 23 -28 -32 c-15 -17 -28 -38 -28 -45 0 -31 114 -110 200 -139 l55
-18 92 0 93 1 47 18 c27 10 71 32 98 50 l50 33 31 48 c92 141 67 306 -63 424
l-50 44 -118 60 -118 60 -49 43 -48 44 0 65 0 65 33 33 33 33 52 7 c91 12 242
-28 242 -65 0 -4 11 -10 25 -12 l25 -5 24 32 25 32 -5 19 c-5 18 -26 34 -93
71 -73 41 -210 52 -301 24z"/>
<path d="M5963 1700 c-2 -3 -11 -20 -19 -39 l-14 -35 10 -10 11 -11 137 0 137
0 3 -497 2 -498 13 -1 c6 -1 45 -2 85 -3 l73 -2 7 10 c4 6 7 232 7 501 l0 490
135 1 c165 1 160 0 160 24 0 21 -20 69 -29 71 -22 4 -714 3 -718 -1z"/>
<path d="M6873 1703 l-13 -5 0 -421 1 -422 18 -53 c33 -95 104 -163 208 -198
l47 -16 96 0 c53 0 105 4 116 9 10 6 36 18 58 29 51 25 107 91 128 150 l16 49
2 430 c2 237 2 436 1 443 l-1 13 -47 -3 -48 -3 -5 -435 -5 -435 -12 -34 c-17
-46 -40 -70 -91 -92 l-44 -19 -53 0 c-91 0 -155 41 -182 118 l-13 37 0 426 0
427 -16 6 c-18 7 -143 7 -161 -1z"/>
<path d="M7963 1703 l-173 -3 0 -546 0 -546 248 4 247 4 44 23 c25 13 67 46
95 75 l51 51 29 59 c16 33 37 100 47 149 l19 90 0 96 -1 96 -18 85 c-10 47
-32 115 -49 151 l-31 67 -60 53 -59 54 -54 17 c-66 21 -119 25 -335 21z m264
-109 c62 -21 81 -38 109 -99 l24 -50 0 -288 0 -288 -20 -42 c-26 -54 -37 -68
-81 -95 l-36 -22 -122 0 -121 0 -1 13 c-1 6 0 203 0 437 1 234 1 431 1 438 l0
12 100 0 99 0 48 -16z"/>
<path d="M8762 1702 l-13 -9 1 -538 c0 -296 2 -541 5 -543 7 -7 165 -6 172 2
4 4 8 250 8 547 l0 539 -13 5 c-22 8 -146 5 -160 -3z"/>
</g>
</svg>
